<?xml version="1.0" encoding="UTF-8" standalone="no"?>
<svg xmlns="http://www.w3.org/2000/svg" width="1024" height="1024" viewBox="0 0 1024 1024" version="1.1">
  <path d="M 637 380 L 607 364 L 573 355 L 542 354 L 504 362 L 459 388 L 437 412 L 414 450 L 349 474 L 322 497 L 321 502 L 374 500 L 427 512 L 460 549 L 435 617 L 429 668 L 438 667 L 446 616 L 472 552 L 443 512 L 473 493 L 457 474 L 457 462 L 483 425 L 508 412 L 539 410 L 566 420 L 585 437 L 599 462 L 604 497 L 588 546 L 586 591 L 602 655 L 644 633 L 675 600 L 701 540 L 702 483 L 680 425 Z" fill="#000" stroke="none"/><path d="M 509 447 L 508 448 L 506 448 L 505 449 L 504 449 L 503 450 L 502 450 L 498 454 L 498 455 L 497 456 L 497 457 L 496 458 L 496 468 L 497 469 L 497 471 L 499 473 L 499 474 L 500 475 L 501 475 L 503 477 L 504 477 L 505 478 L 507 478 L 508 479 L 515 479 L 516 478 L 518 478 L 519 477 L 520 477 L 525 472 L 525 471 L 526 470 L 526 469 L 527 468 L 527 458 L 526 457 L 526 456 L 525 455 L 525 454 L 521 450 L 520 450 L 519 449 L 518 449 L 517 448 L 515 448 L 514 447 Z" fill="#000" stroke="none"/>
</svg>
